<svg width="26" height="26" viewBox="0 0 26 26" fill="none" xmlns="http://www.w3.org/2000/svg">
<path fill-rule="evenodd" clip-rule="evenodd" d="M13 23.8333C18.983 23.8333 23.8333 18.983 23.8333 13C23.8333 7.01691 18.983 2.16667 13 2.16667C7.01691 2.16667 2.16667 7.01691 2.16667 13C2.16667 18.983 7.01691 23.8333 13 23.8333ZM13 26C20.1798 26 26 20.1798 26 13C26 5.8203 20.1798 0 13 0C5.8203 0 0 5.8203 0 13C0 20.1798 5.8203 26 13 26ZM14.0833 17.3333V19.5H11.9167V17.3333H14.0833ZM10.8333 10.7348C10.8333 9.6238 11.7718 8.66667 13 8.66667C14.2282 8.66667 15.1667 9.6238 15.1667 10.7348C15.1667 11.1786 14.8996 11.7045 14.311 12.3007C13.7404 12.8788 13.015 13.3745 12.4118 13.7644L11.9167 14.0846V16.25H14.0833V15.2567C14.634 14.8821 15.2863 14.3969 15.8531 13.8228C16.5848 13.0815 17.3333 12.0316 17.3333 10.7348C17.3333 8.36482 15.3615 6.5 13 6.5C10.6385 6.5 8.66667 8.36482 8.66667 10.7348H10.8333Z" fill="white"/>
</svg>
