<svg width="34" height="34" viewBox="0 0 34 34" fill="none" xmlns="http://www.w3.org/2000/svg">
<path fill-rule="evenodd" clip-rule="evenodd" d="M16.9351 33.9999L16.9503 34H16.945L16.9351 33.9999ZM17.055 34H17.0497L17.0649 33.9999L17.055 34ZM16.8831 33.9997L16.8995 33.9997H16.8901L16.8831 33.9997ZM17.1099 33.9997H17.1005L17.1169 33.9997L17.1099 33.9997ZM16.8331 33.9993L16.844 33.9993L16.8352 33.9993H16.8331ZM17.1648 33.9993L17.156 33.9993L17.1669 33.9993H17.1648ZM17.2196 33.9987L17.2158 33.9987L17.2306 33.9985L17.2196 33.9987ZM16.7694 33.9985L16.7842 33.9987L16.7804 33.9987L16.7694 33.9985ZM17.2744 33.9979L17.2654 33.998L17.2837 33.9977L17.2744 33.9979ZM16.7163 33.9977L16.7346 33.998L16.7256 33.9979L16.7163 33.9977ZM17.3291 33.9969L17.317 33.9971L17.3339 33.9968L17.3291 33.9969ZM16.6661 33.9968L16.683 33.9971L16.6709 33.9969L16.6661 33.9968ZM16.6039 33.9956L16.6188 33.9959L16.6162 33.9958L16.6039 33.9956ZM17.3838 33.9958L17.3812 33.9959L17.3961 33.9956L17.3838 33.9958ZM16.5493 33.9942L16.5698 33.9947L16.5615 33.9945L16.5493 33.9942ZM17.4385 33.9945L17.4302 33.9947L17.4507 33.9942L17.4385 33.9945ZM17.4931 33.993L17.4798 33.9934L17.5008 33.9928L17.4931 33.993ZM16.4992 33.9928L16.5202 33.9934L16.5069 33.993L16.4992 33.9928ZM16.4514 33.9914L16.4664 33.9918L16.4523 33.9914L16.4394 33.991L16.4514 33.9914ZM17.5477 33.9914L17.5336 33.9918L17.5486 33.9914L17.5606 33.991L17.5477 33.9914ZM17.6022 33.9896L17.5948 33.9898L17.6177 33.989L17.6022 33.9896ZM16.3823 33.989L16.4052 33.9898L16.3978 33.9896L16.3823 33.989ZM16.3326 33.9872L16.3566 33.988L16.3432 33.9876L16.3326 33.9872ZM17.6568 33.9876L17.6434 33.988L17.6674 33.9872L17.6568 33.9876ZM16.2837 33.9852L16.3072 33.9862L16.2889 33.9855L16.2837 33.9852ZM17.7111 33.9855L17.6928 33.9862L17.7163 33.9852L17.7111 33.9855ZM16.2153 33.9822L16.2406 33.9833L16.2344 33.9831L16.2153 33.9822ZM17.7656 33.9831L17.7594 33.9833L17.7847 33.9822L17.7656 33.9831ZM16.1663 33.9799L16.1924 33.9811L16.1801 33.9806L16.1663 33.9799ZM17.8199 33.9806L17.8076 33.9811L17.8337 33.9799L17.8199 33.9806ZM16.1179 33.9775L16.1443 33.9788L16.1258 33.978L16.1179 33.9775ZM17.8742 33.978L17.8557 33.9788L17.8821 33.9775L17.8742 33.978ZM17.9286 33.9751L17.9045 33.9764L17.9258 33.9752L17.9509 33.9738L17.9286 33.9751ZM16.0742 33.9752L16.0955 33.9764L16.0714 33.9751L16.0491 33.9738L16.0742 33.9752ZM17.9827 33.972L17.9721 33.9726L17.9991 33.9711L17.9827 33.972ZM16.0009 33.9711L16.0279 33.9726L16.0173 33.972L16.0009 33.9711ZM15.953 33.9683L15.9799 33.9699L15.9631 33.9689L15.953 33.9683ZM18.0369 33.9689L18.0201 33.9699L18.047 33.9683L18.0369 33.9689ZM15.9072 33.9654L15.9315 33.9669L15.9089 33.9655L15.8862 33.9641L15.9072 33.9654ZM18.0911 33.9655L18.0685 33.9669L18.0928 33.9654L18.1138 33.9641L18.0911 33.9655ZM18.1452 33.962L18.1371 33.9625L18.1628 33.9608L18.1452 33.962ZM15.8372 33.9608L15.8629 33.9625L15.8548 33.962L15.8372 33.9608ZM15.7893 33.9575L15.8146 33.9593L15.8008 33.9584L15.7893 33.9575ZM18.1992 33.9584L18.1854 33.9593L18.2107 33.9575L18.1992 33.9584ZM15.7416 33.9541L15.7648 33.9558L15.7468 33.9545L15.7416 33.9541ZM18.2532 33.9545L18.2352 33.9558L18.2584 33.9541L18.2532 33.9545ZM15.6774 33.9493L15.6977 33.9508L15.6928 33.9505L15.6774 33.9493ZM18.3072 33.9505L18.3023 33.9508L18.3226 33.9493L18.3072 33.9505ZM18.3611 33.9463L18.3514 33.947L18.372 33.9454L18.3611 33.9463ZM15.628 33.9454L15.6486 33.947L15.6389 33.9463L15.628 33.9454ZM15.5798 33.9414L15.5974 33.9429L15.585 33.9419L15.5798 33.9414ZM18.415 33.9419L18.4026 33.9429L18.4202 33.9414L18.415 33.9419ZM15.5268 33.937L15.5321 33.9374L15.5312 33.9374L15.5268 33.937ZM18.4688 33.9374L18.4679 33.9374L18.4732 33.937L18.4688 33.9374ZM18.5226 33.9327L18.5178 33.9331L18.5298 33.932L18.5226 33.9327ZM15.4702 33.932L15.4822 33.9331L15.4774 33.9327L15.4702 33.932ZM15.4204 33.9275L15.4294 33.9284L15.4238 33.9278L15.4204 33.9275ZM18.5762 33.9278L18.5706 33.9284L18.5796 33.9275L18.5762 33.9278ZM14.3438 33.7933C6.221 32.5166 0 25.4791 0 17C0 7.61748 7.61746 0 17 0C26.3825 0 34 7.61748 34 17C34 25.4791 27.779 32.5166 19.6562 33.7933V21.9141H23.6174L24.3711 17H19.6562V13.8111C19.6562 12.4667 20.3149 11.1563 22.4267 11.1563H24.5703V6.97267C24.5703 6.97267 22.6249 6.64064 20.7649 6.64064C16.8817 6.64064 14.3438 8.99408 14.3438 13.2547V17H10.0273V21.9141H14.3438V33.7933Z" fill="white"/>
</svg>
