<svg width="34" height="34" viewBox="0 0 34 34" fill="none" xmlns="http://www.w3.org/2000/svg">
<path fill-rule="evenodd" clip-rule="evenodd" d="M17 0C26.3825 0 34 7.61746 34 17C34 26.3825 26.3825 34 17 34C7.61746 34 0 26.3825 0 17C0 7.61746 7.61746 0 17 0ZM17 6.375C14.1144 6.375 13.7526 6.38722 12.6193 6.43895C11.4884 6.49055 10.716 6.67018 10.0402 6.93281C9.3415 7.20435 8.74896 7.56766 8.15827 8.15834C7.56759 8.74902 7.20428 9.34157 6.93275 10.0402C6.67011 10.716 6.49055 11.4884 6.43888 12.6193C6.38722 13.7526 6.375 14.1144 6.375 17C6.375 19.8856 6.38722 20.2474 6.43888 21.3807C6.49055 22.5116 6.67011 23.284 6.93275 23.9598C7.20428 24.6584 7.56759 25.251 8.15827 25.8417C8.74896 26.4324 9.3415 26.7957 10.0402 27.0673C10.716 27.3298 11.4884 27.5095 12.6193 27.5611C13.7526 27.6128 14.1144 27.625 17 27.625C19.8856 27.625 20.2474 27.6128 21.3807 27.5611C22.5116 27.5095 23.284 27.3298 23.9598 27.0673C24.6584 26.7957 25.251 26.4324 25.8417 25.8417C26.4324 25.251 26.7957 24.6584 27.0673 23.9598C27.3298 23.284 27.5095 22.5116 27.5611 21.3807C27.6128 20.2474 27.625 19.8856 27.625 17C27.625 14.1144 27.6128 13.7526 27.5611 12.6193C27.5095 11.4884 27.3298 10.716 27.0673 10.0402C26.7957 9.34157 26.4324 8.74902 25.8417 8.15834C25.251 7.56766 24.6584 7.20435 23.9598 6.93281C23.284 6.67018 22.5116 6.49055 21.3807 6.43895C20.2474 6.38722 19.8856 6.375 17 6.375ZM17 8.28943C19.837 8.28943 20.173 8.30025 21.2934 8.35138C22.3294 8.39866 22.8919 8.57172 23.2663 8.71721C23.7623 8.90993 24.1162 9.14022 24.488 9.51203C24.8598 9.88377 25.0901 10.2378 25.2828 10.7337C25.4283 11.1081 25.6014 11.6706 25.6486 12.7066C25.6998 13.827 25.7106 14.163 25.7106 17C25.7106 19.837 25.6998 20.173 25.6486 21.2934C25.6014 22.3294 25.4283 22.8919 25.2828 23.2663C25.0901 23.7623 24.8598 24.1162 24.488 24.488C24.1162 24.8598 23.7623 25.0901 23.2663 25.2828C22.8919 25.4283 22.3294 25.6014 21.2934 25.6486C20.1732 25.6998 19.8372 25.7106 17 25.7106C14.1628 25.7106 13.8268 25.6998 12.7066 25.6486C11.6706 25.6014 11.1081 25.4283 10.7337 25.2828C10.2377 25.0901 9.88377 24.8598 9.51196 24.488C9.14016 24.1162 8.90993 23.7623 8.71721 23.2663C8.57172 22.8919 8.3986 22.3294 8.35132 21.2934C8.30018 20.173 8.28943 19.837 8.28943 17C8.28943 14.163 8.30018 13.827 8.35132 12.7066C8.3986 11.6706 8.57172 11.1081 8.71721 10.7337C8.90993 10.2378 9.14016 9.88377 9.51196 9.51203C9.88377 9.14022 10.2377 8.90993 10.7337 8.71721C11.1081 8.57172 11.6706 8.39866 12.7066 8.35138C13.827 8.30025 14.163 8.28943 17 8.28943ZM17 11.5439C13.9867 11.5439 11.5439 13.9867 11.5439 17C11.5439 20.0133 13.9867 22.4561 17 22.4561C20.0133 22.4561 22.4561 20.0133 22.4561 17C22.4561 13.9867 20.0133 11.5439 17 11.5439ZM17 20.5416C15.044 20.5416 13.4584 18.956 13.4584 17C13.4584 15.044 15.044 13.4584 17 13.4584C18.956 13.4584 20.5416 15.044 20.5416 17C20.5416 18.956 18.956 20.5416 17 20.5416ZM23.9467 11.3284C23.9467 12.0325 23.3758 12.6033 22.6716 12.6033C21.9675 12.6033 21.3967 12.0325 21.3967 11.3284C21.3967 10.6242 21.9675 10.0534 22.6716 10.0534C23.3758 10.0534 23.9467 10.6242 23.9467 11.3284Z" fill="white"/>
</svg>
