<svg width="96" height="30" viewBox="0 0 96 30" fill="none" xmlns="http://www.w3.org/2000/svg">
<path d="M0.876521 15.0088L0.829511 13.8447C0.829067 13.8338 0.835117 13.8235 0.844959 13.8186L2.34453 13.0729C2.34572 13.0723 2.34695 13.0718 2.3482 13.0714L3.59888 12.6581L4.94519 12.3179C4.94693 12.3175 4.9487 12.3172 4.95049 12.3171L6.27263 12.2442H7.88102C7.88465 12.2442 7.88824 12.2449 7.8916 12.2463L8.7168 12.5844C8.7396 12.5938 8.73997 12.6259 8.71739 12.6358L7.88652 12.9989L5.79087 13.8267L2.68645 14.9455C2.68452 14.9462 2.68252 14.9467 2.68048 14.947L1.72003 15.0683L0.986003 15.1162C0.97794 15.1167 0.970045 15.1137 0.964361 15.108L0.884563 15.0273C0.87967 15.0224 0.876802 15.0158 0.876521 15.0088Z" fill="white"/>
<path d="M8.88006 29.9059L0.0318377 15.5949H3.6125L10.6046 26.7895L17.3475 15.5949H17.6193L9.08457 29.9059H8.88006ZM23.2346 15.5949V15.8143H21.0066V29.5367H23.2346V29.7175H14.8797V29.5089H17.4418V15.5949H23.2346Z" fill="white"/>
<path d="M35.0776 15.5949C37.4859 15.5949 39.5601 15.9024 41.3 16.5175C43.04 17.1264 44.3767 17.9643 45.3104 19.0314C46.2546 20.0922 46.7267 21.3004 46.7267 22.6562C46.7267 23.673 46.4403 24.6114 45.8674 25.4713C45.3051 26.3312 44.5094 27.0782 43.4802 27.7121C42.4511 28.3461 41.2257 28.8388 39.8041 29.1903C38.3824 29.5418 36.8069 29.7175 35.0776 29.7175H25.8156V29.5089H28.6642V15.7864H25.8156V15.5949H35.0776ZM32.2449 29.5367H35.0776C36.4674 29.5367 37.6398 29.4822 38.5946 29.0867C39.5495 28.685 40.3133 28.1515 40.8863 27.4862C41.4592 26.8146 41.8729 26.0613 42.1276 25.2265C42.3822 24.3855 42.5095 23.5255 42.5095 22.6468C42.5095 21.7743 42.3663 20.9207 42.0798 20.0859C41.804 19.2511 41.369 18.501 40.7749 17.8357C40.1807 17.1641 39.4115 16.6305 38.4673 16.2351C37.5231 15.8334 36.3932 15.7725 35.0776 15.7725L33.6567 15.7864H32.2449V29.5367Z" fill="white"/>
<path d="M68.4711 15.5949V15.8143H65.5781L56.9395 30H56.4241L47.985 15.8143H45.7617V15.5949H55.6125V15.7864H52.1485L58.4101 27.1381L65.2518 15.8143H61.4848V15.5949H68.4711Z" fill="white"/>
<path d="M70.6404 29.7175V29.5367H74.1256V15.8143H70.6404V15.5949H81.5256V15.8143H77.7247L77.6968 29.5089H81.5256V29.7175H70.6404Z" fill="white"/>
<path d="M88.4396 25.1418L88.5465 24.9068H93.2462L93.8991 25.1418H88.4396ZM93.4832 15.2425L95.5659 29.4927V29.7176L93.1261 29.6799L91.7261 19.0357L86.2036 29.5089H89.9778V29.7176H82.9756V29.5089H85.9387L93.4832 15.2425Z" fill="white"/>
<path d="M2.79939 28.5506C2.79939 29.271 2.17272 29.8551 1.39969 29.8551C0.626664 29.8551 0 29.271 0 28.5506C0 27.8301 0.626664 27.2461 1.39969 27.2461C2.17272 27.2461 2.79939 27.8301 2.79939 28.5506Z" fill="white"/>
<path d="M92.8307 13.2575C92.755 13.2575 92.7046 13.1792 92.7359 13.1103L92.7382 13.1052C92.7654 13.0453 92.8396 13.0235 92.8949 13.0593L93.0959 13.1896C93.1626 13.2328 93.2077 13.3024 93.2199 13.3809L93.3323 14.1042L93.4352 14.4888C93.44 14.5065 93.4424 14.5248 93.4424 14.5431C93.4424 14.581 93.4321 14.6182 93.4126 14.6508L92.8836 15.5354L92.1584 16.651L91.5587 17.6133L91.7701 16.0754C91.7733 16.0516 91.7735 16.0275 91.7706 16.0037L91.6736 15.2072C91.6648 15.1354 91.7362 15.0806 91.8033 15.1074C91.8536 15.1276 91.9205 15.1479 91.9606 15.1113C92.0589 15.0216 92.2368 14.8294 92.3139 14.7221C92.3508 14.6708 92.3234 14.6844 92.3066 14.7453L92.4445 16.1147C92.4487 16.1556 92.4021 16.2007 92.3618 16.2087C92.2632 16.2283 91.947 16.3018 91.9185 16.3982L91.5587 17.6133L91.4285 16.1122L91.3077 15.8219L91.1264 15.4935L90.973 15.2565L90.8336 15.0477L90.6383 14.7544L90.3594 14.3779L90.1502 14.1042L89.8434 13.7225L89.6343 13.4993L89.3832 13.318L89.1462 13.1507L88.8812 12.9833L88.5604 12.816L88.2676 12.6769L87.905 12.5231L87.5843 12.3976L87.1938 12.2582L86.7615 12.1187L86.3292 11.9932L85.9029 11.8953L80.5141 11.0076L75.3911 10.2092L69.9781 9.24152L68.3349 9.04145L67.7791 9.07218L63.9731 9.23888C63.9648 9.23924 63.963 9.22745 63.9709 9.22522L73.5062 6.55616L74.5213 6.20357C74.6304 6.1657 74.7222 6.09004 74.7804 5.99025L74.8122 5.93566C74.8434 5.88211 74.864 5.82304 74.873 5.76169L75.0235 4.72807C75.0269 4.70495 75.0286 4.68161 75.0286 4.65824V4.33083C75.0286 4.22096 74.9912 4.11437 74.9227 4.02857L74.8878 3.98489C74.853 3.94141 74.8111 3.90426 74.7637 3.87508L74.5845 3.76467C74.5425 3.7388 74.4968 3.71952 74.449 3.70749L70.0023 2.58859L66.2084 1.86282L63.0669 1.47574L59.1522 1.06447L55.5999 0.919314H52.4343L50.1628 1.06447L47.2388 1.42736L44.6532 2.05636L41.9225 2.99987L39.2885 4.20949L37.4037 5.03203L34.8663 6.33843L32.4257 7.64482L30.4724 8.94061C30.4376 8.96371 30.4059 8.99123 30.3782 9.02249L30.2267 9.19314L29.8994 9.5208C29.7899 9.63037 29.8256 9.81597 29.9679 9.87701C29.9951 9.8887 30.0245 9.89472 30.0541 9.89472H34.0206H35.6155H51.661L44.2182 10.4995L28.9459 10.6689H19.6907L14.0603 11.0802L12.0546 11.2979L9.6139 11.7092L9.08227 11.8301L8.71979 11.9027L8.31292 12.0313C8.27819 12.0423 8.24481 12.0572 8.21342 12.0757L8.05334 12.1934C7.96836 12.2559 7.86529 12.2889 7.75985 12.2873L6.32746 12.2656L4.89791 12.3594C4.86829 12.3614 4.83892 12.366 4.81016 12.3734L3.62097 12.6769L2.27771 13.1251C2.25498 13.1327 2.23285 13.142 2.21149 13.1528L0.980763 13.7793C0.904637 13.8181 0.840661 13.8761 0.794698 13.9468C0.760631 13.9992 0.7602 14.065 0.77804 14.1249L0.980763 14.8058V15.149L0.323141 15.1396C0.316651 15.1395 0.310965 15.1436 0.307368 15.149C0.27931 15.1911 0.213707 15.1712 0.213707 15.1206V13.5926C0.213707 13.5545 0.182842 13.5236 0.144769 13.5236C0.0906221 13.5236 0.0576115 13.464 0.0863091 13.418L0.126753 13.3532C0.136252 13.338 0.149282 13.3253 0.164734 13.3162L2.07441 12.193L4.69475 10.8098C4.71991 10.7965 4.7462 10.7855 4.7733 10.7768L7.53571 9.89472L11.9821 9.07218L17.6608 8.51575L25.7561 7.76578L28.7768 7.59644L29.8605 7.48102C29.8951 7.47733 29.9292 7.46992 29.9622 7.4589L30.4558 7.29419C30.4802 7.28603 30.5039 7.27593 30.5268 7.26399L34.2381 5.32234L37.9836 3.5321L40.9318 2.27409L42.0434 1.81444L43.9041 1.25801L46.0064 0.653197L47.7705 0.362887L50.2836 0.19354L52.9418 0H54.8991L59.0072 0.19354L64.5893 0.895122L67.4408 1.30639L72.0805 2.2499L76.7443 3.43533L83.5347 5.49169L86.3137 6.41101L86.942 6.55616L90.0351 7.13678L90.7842 7.23355L91.4561 7.27839C91.4913 7.28075 91.5268 7.27922 91.5617 7.27384L91.9269 7.21759C92.061 7.19693 92.1803 7.12078 92.2556 7.00775L92.2824 6.96743L92.3549 6.87066C92.3954 6.81662 92.4713 6.80321 92.5275 6.84069C92.5562 6.85984 92.5759 6.88985 92.5821 6.92383L92.6207 7.13678L92.6932 7.86255V8.23218C92.6932 8.3073 92.6758 8.38138 92.6422 8.44857L92.39 8.95356C92.3668 9.00008 92.3362 9.04254 92.2995 9.07931L91.8475 9.53183C91.8203 9.55898 91.8191 9.6026 91.8447 9.63121L92.6088 10.4862C92.6167 10.495 92.6264 10.5018 92.6373 10.5062C92.6872 10.5262 92.7416 10.4893 92.7416 10.4355V10.3601C92.7416 10.326 92.7576 10.294 92.7848 10.2735C92.8175 10.2489 92.8613 10.245 92.898 10.2633L92.9207 10.2747C92.9301 10.2794 92.939 10.2851 92.9472 10.2917L92.9567 10.2993C93.0193 10.3494 93.0557 10.4253 93.0557 10.5055V10.5794C93.0557 10.6226 93.0479 10.6654 93.0328 10.7058L93.0201 10.7398C92.9964 10.8031 92.9497 10.855 92.8893 10.8852L92.8458 10.907C92.7819 10.939 92.7416 11.0044 92.7416 11.0759C92.7416 11.139 92.7731 11.198 92.8255 11.233L93.0861 11.4069C93.1456 11.4466 93.1956 11.4991 93.2324 11.5605L93.2658 11.6162C93.3025 11.6774 93.3252 11.746 93.3323 11.817L93.3401 11.8953C93.3438 11.9323 93.342 11.9696 93.3347 12.0061C93.3311 12.024 93.3263 12.044 93.3202 12.0634C93.3082 12.1021 93.2961 12.1414 93.2937 12.1818L93.2732 12.5317C93.2687 12.621 93.2469 12.7287 93.2431 12.818C93.2334 13.0464 93.25 13.496 93.2476 13.7501C93.2468 13.8346 93.1968 13.8391 93.1673 13.7599L93.0773 13.5178C93.0594 13.4699 92.9937 13.4386 92.987 13.4893C92.9798 13.5438 92.9349 13.5798 92.9349 13.5248V13.3378C92.9349 13.2934 92.8989 13.2575 92.8545 13.2575H92.8307Z" fill="white"/>
<path d="M34.1754 7.00068H36.9186L37.0176 7.05647L37.1351 7.19406L37.157 7.23776L37.087 7.99175L36.9618 8.49286L36.1251 8.92517L35.4975 9.35749L35.5951 9.90136L34.1109 9.99898L33.9635 9.23198L33.7125 8.92517L33.6148 8.82755L33.6288 8.75783L34.2235 8.33016L34.2006 8.22789L33.4614 7.82347L33.4196 7.7398L33.646 7.36327L34.1754 7.00068Z" fill="white"/>
</svg>
