<svg width="34" height="34" viewBox="0 0 34 34" fill="none" xmlns="http://www.w3.org/2000/svg">
<path fill-rule="evenodd" clip-rule="evenodd" d="M17 0C26.3825 0 34 7.61746 34 17C34 26.3825 26.3825 34 17 34C7.61746 34 0 26.3825 0 17C0 7.61746 7.61746 0 17 0ZM25.0702 8.95448C23.0351 6.91767 20.3287 5.79547 17.4453 5.79434C11.504 5.79434 6.66858 10.6279 6.66626 16.5692C6.66546 18.4683 7.16178 20.3222 8.10502 21.9562L6.57581 27.54L12.2899 26.0416C13.8643 26.9 15.6369 27.3524 17.4409 27.3532H17.4454C23.386 27.3532 28.2219 22.519 28.2242 16.5777C28.2254 13.6985 27.1052 10.9912 25.0702 8.95448ZM17.4453 25.5333H17.4417C15.8341 25.5326 14.2574 25.1009 12.8818 24.2849L12.5546 24.0907L9.16386 24.98L10.0689 21.675L9.85588 21.3362C8.95907 19.9103 8.48546 18.2621 8.48612 16.5698C8.48811 11.6317 12.5072 7.61421 17.4489 7.61421C19.8419 7.61514 22.0912 8.54801 23.7827 10.2408C25.4742 11.9337 26.4053 14.184 26.4043 16.5771C26.4023 21.5155 22.3834 25.5332 17.4453 25.5333ZM22.3596 18.8256C22.0902 18.6908 20.7661 18.0395 20.5191 17.9496C20.2723 17.8598 20.0928 17.8148 19.9132 18.0843C19.7337 18.3539 19.2175 18.9604 19.0604 19.1401C18.9033 19.3197 18.7462 19.3423 18.4769 19.2074C18.2075 19.0727 17.3397 18.7884 16.311 17.8711C15.5104 17.1572 14.9698 16.2754 14.8127 16.0059C14.6557 15.7364 14.796 15.5907 14.9308 15.4564C15.052 15.3358 15.2001 15.142 15.3348 14.9847C15.4695 14.8275 15.5144 14.7152 15.6041 14.5355C15.6939 14.3558 15.649 14.1986 15.5817 14.0638C15.5144 13.929 14.9757 12.6038 14.7513 12.0647C14.5327 11.5397 14.3107 11.6107 14.1453 11.6025C13.9884 11.5947 13.8087 11.593 13.6292 11.593C13.4496 11.593 13.1579 11.6604 12.9109 11.9299C12.6641 12.1995 11.9683 12.8509 11.9683 14.1761C11.9683 15.5013 12.9334 16.7816 13.0681 16.9614C13.2028 17.141 14.9672 19.8606 17.669 21.0268C18.3115 21.3042 18.8132 21.4699 19.2044 21.594C19.8496 21.7988 20.4367 21.77 20.9008 21.7006C21.4182 21.6233 22.4943 21.0493 22.7186 20.4204C22.943 19.7915 22.943 19.2524 22.8758 19.1401C22.8084 19.0278 22.6289 18.9604 22.3596 18.8256Z" fill="white"/>
</svg>
